<?xml version="1.0" encoding="UTF-8"?>
<svg xmlns="http://www.w3.org/2000/svg" xmlns:xlink="http://www.w3.org/1999/xlink" width="200px" height="200px" viewBox="0 0 600 600" version="1.1">
<g id="surface1">
<path style=" stroke:none;fill-rule:nonzero;fill:rgb(74.901962%,13.725491%,27.058825%);fill-opacity:1;" d="M 299.996094 125 C 299.996094 104.375 283.125 87.496094 262.496094 87.496094 C 241.871094 87.496094 225 104.375 225 125 L 225 162.5 L 299.996094 162.5 Z M 299.996094 125 "/>
<path style=" stroke:none;fill-rule:nonzero;fill:rgb(66.274512%,76.862746%,85.490197%);fill-opacity:1;" d="M 447.824219 162.5 L 152.175781 162.5 C 135.722656 162.5 127.832031 179.183594 122.261719 197.082031 L 84.644531 317.890625 C 93.265625 314.414062 102.671875 312.5 112.5 312.5 L 487.496094 312.5 C 497.324219 312.5 506.734375 314.417969 515.347656 317.894531 L 477.738281 197.082031 C 472.164062 179.1875 464.277344 162.5 447.824219 162.5 Z M 447.824219 162.5 "/>
<path style=" stroke:none;fill-rule:nonzero;fill:rgb(42.352942%,40.784314%,43.529412%);fill-opacity:1;" d="M 487.5 312.5 L 112.5 312.5 C 102.671875 312.5 93.265625 314.414062 84.644531 317.890625 C 57.082031 329.007812 37.5 356.078125 37.5 387.496094 L 37.5 462.496094 L 562.5 462.496094 L 562.5 387.496094 C 562.5 356.074219 542.917969 329.007812 515.351562 317.894531 C 506.734375 314.414062 497.328125 312.5 487.5 312.5 Z M 112.5 362.5 L 162.5 362.5 C 176.25 362.5 187.496094 373.746094 187.496094 387.5 C 187.496094 401.246094 176.25 412.496094 162.5 412.496094 L 112.5 412.496094 C 98.75 412.496094 87.5 401.246094 87.5 387.5 C 87.5 373.746094 98.75 362.5 112.5 362.5 Z M 437.5 362.5 L 487.5 362.5 C 501.25 362.5 512.5 373.746094 512.5 387.5 C 512.5 401.246094 501.25 412.496094 487.5 412.496094 L 437.5 412.496094 C 423.753906 412.496094 412.503906 401.246094 412.503906 387.5 C 412.503906 373.746094 423.75 362.5 437.5 362.5 Z M 437.5 362.5 "/>
<path style=" stroke:none;fill-rule:nonzero;fill:rgb(90.980393%,52.549022%,23.137255%);fill-opacity:1;" d="M 187.5 387.5 C 187.5 373.746094 176.25 362.5 162.5 362.5 L 112.5 362.5 C 98.75 362.5 87.5 373.746094 87.5 387.5 C 87.5 401.246094 98.75 412.496094 112.5 412.496094 L 162.5 412.496094 C 176.25 412.496094 187.5 401.246094 187.5 387.5 Z M 187.5 387.5 "/>
<path style=" stroke:none;fill-rule:nonzero;fill:rgb(90.980393%,52.549022%,23.137255%);fill-opacity:1;" d="M 412.503906 387.5 C 412.503906 401.246094 423.75 412.496094 437.5 412.496094 L 487.5 412.496094 C 501.25 412.496094 512.5 401.246094 512.5 387.5 C 512.5 373.746094 501.25 362.5 487.5 362.5 L 437.5 362.5 C 423.75 362.5 412.503906 373.746094 412.503906 387.5 Z M 412.503906 387.5 "/>
<path style=" stroke:none;fill-rule:nonzero;fill:rgb(95.294118%,86.666667%,72.549021%);fill-opacity:1;" d="M 562.5 462.496094 L 37.5 462.496094 C 23.75 462.496094 12.503906 473.746094 12.503906 487.496094 C 12.503906 501.246094 23.75 512.496094 37.5 512.496094 L 562.5 512.496094 C 576.25 512.496094 587.496094 501.246094 587.496094 487.496094 C 587.496094 473.746094 576.25 462.496094 562.5 462.496094 Z M 562.5 462.496094 "/>
<path style=" stroke:none;fill-rule:nonzero;fill:rgb(42.352942%,40.784314%,43.529412%);fill-opacity:1;" d="M 137.5 569.332031 L 137.5 512.5 L 62.503906 512.5 L 62.503906 569.332031 C 62.503906 579.328125 70.675781 587.5 80.667969 587.5 L 119.335938 587.5 C 129.328125 587.496094 137.5 579.324219 137.5 569.332031 Z M 137.5 569.332031 "/>
<path style=" stroke:none;fill-rule:nonzero;fill:rgb(42.352942%,40.784314%,43.529412%);fill-opacity:1;" d="M 462.5 512.5 L 462.5 569.332031 C 462.5 579.328125 470.675781 587.5 480.667969 587.5 L 519.335938 587.5 C 529.324219 587.5 537.5 579.328125 537.5 569.332031 L 537.5 512.5 Z M 462.5 512.5 "/>
<path style=" stroke:none;fill-rule:nonzero;fill:rgb(0%,0%,1.176471%);fill-opacity:1;" d="M 575.003906 452.144531 L 575.003906 387.496094 C 575.003906 352.894531 554.8125 322.925781 525.59375 308.734375 L 489.675781 193.363281 C 485.980469 181.503906 476.171875 149.996094 447.824219 149.996094 L 312.5 149.996094 L 312.5 124.996094 C 312.5 97.425781 290.070312 74.992188 262.496094 74.992188 C 234.925781 74.992188 212.496094 97.425781 212.496094 124.996094 L 212.496094 149.996094 L 152.175781 149.996094 C 123.824219 149.996094 114.015625 181.503906 110.324219 193.363281 L 74.40625 308.734375 C 45.1875 322.925781 24.996094 352.894531 24.996094 387.496094 L 24.996094 452.144531 C 10.449219 457.304688 0 471.203125 0 487.5 C 0 508.179688 16.824219 525 37.5 525 L 50 525 L 50 569.332031 C 50 586.242188 63.757812 600 80.667969 600 L 119.335938 600 C 136.246094 600 150.003906 586.242188 150.003906 569.332031 L 150.003906 525 L 449.996094 525 L 449.996094 569.332031 C 449.996094 586.242188 463.753906 600 480.664062 600 L 519.332031 600 C 536.242188 600 550 586.242188 550 569.332031 L 550 525 L 562.5 525 C 583.179688 525 600 508.175781 600 487.496094 C 600 471.199219 589.550781 457.304688 575.003906 452.144531 Z M 237.503906 125 C 237.503906 111.214844 248.714844 100 262.5 100 C 276.28125 100 287.496094 111.214844 287.496094 125 L 287.496094 149.996094 L 237.503906 149.996094 Z M 103.160156 300.492188 L 134.199219 200.796875 C 141.3125 177.933594 147.542969 175 152.175781 175 L 447.824219 175 C 452.453125 175 458.683594 177.933594 465.800781 200.796875 L 496.839844 300.492188 C 496.789062 300.488281 496.734375 300.484375 496.679688 300.480469 C 495.574219 300.363281 494.453125 300.285156 493.335938 300.210938 C 492.921875 300.1875 492.511719 300.140625 492.097656 300.117188 C 490.574219 300.039062 489.039062 299.996094 487.496094 299.996094 L 112.5 299.996094 C 110.957031 299.996094 109.421875 300.039062 107.898438 300.117188 C 107.488281 300.140625 107.082031 300.183594 106.675781 300.210938 C 105.550781 300.285156 104.429688 300.363281 103.316406 300.480469 C 103.265625 300.484375 103.210938 300.488281 103.160156 300.492188 Z M 50.003906 387.496094 C 50.003906 361.304688 66.203125 338.84375 89.105469 329.558594 C 89.179688 329.535156 89.25 329.519531 89.320312 329.492188 C 92.070312 328.382812 94.875 327.480469 97.726562 326.78125 C 97.824219 326.753906 97.921875 326.734375 98.019531 326.710938 C 98.851562 326.511719 99.683594 326.328125 100.519531 326.164062 C 100.792969 326.109375 101.070312 326.066406 101.339844 326.015625 C 102.027344 325.890625 102.714844 325.769531 103.402344 325.667969 C 103.835938 325.605469 104.269531 325.554688 104.703125 325.5 C 105.257812 325.429688 105.8125 325.355469 106.371094 325.300781 C 106.96875 325.242188 107.574219 325.203125 108.179688 325.164062 C 108.589844 325.132812 108.996094 325.09375 109.40625 325.074219 C 110.429688 325.023438 111.464844 324.996094 112.503906 324.996094 L 487.5 324.996094 C 488.539062 324.996094 489.570312 325.023438 490.597656 325.074219 C 490.992188 325.09375 491.382812 325.132812 491.773438 325.160156 C 492.398438 325.203125 493.023438 325.242188 493.644531 325.300781 C 494.171875 325.355469 494.695312 325.425781 495.21875 325.488281 C 495.683594 325.546875 496.152344 325.601562 496.617188 325.667969 C 497.269531 325.765625 497.917969 325.878906 498.5625 325.996094 C 498.878906 326.054688 499.199219 326.105469 499.511719 326.167969 C 500.304688 326.324219 501.097656 326.5 501.882812 326.6875 C 502.027344 326.71875 502.167969 326.75 502.316406 326.785156 C 505.152344 327.484375 507.945312 328.382812 510.675781 329.484375 C 510.785156 329.527344 510.894531 329.558594 511 329.597656 C 533.847656 338.90625 550 361.34375 550 387.492188 L 550 449.988281 L 50.003906 449.988281 Z M 124.996094 569.332031 C 124.996094 572.402344 122.40625 574.996094 119.335938 574.996094 L 80.667969 574.996094 C 77.597656 574.996094 75.003906 572.402344 75.003906 569.332031 L 75.003906 525 L 125 525 C 124.996094 525 124.996094 569.332031 124.996094 569.332031 Z M 524.996094 569.332031 C 524.996094 572.402344 522.402344 574.996094 519.335938 574.996094 L 480.667969 574.996094 C 477.597656 574.996094 475.003906 572.402344 475.003906 569.332031 L 475.003906 525 L 524.996094 525 Z M 562.5 499.996094 L 37.5 499.996094 C 30.609375 499.996094 25.003906 494.386719 25.003906 487.496094 C 25.003906 480.605469 30.609375 475 37.5 475 L 562.5 475 C 569.390625 475 574.996094 480.605469 574.996094 487.5 C 574.996094 494.390625 569.390625 499.996094 562.5 499.996094 Z M 562.5 499.996094 "/>
<path style=" stroke:none;fill-rule:nonzero;fill:rgb(0%,0%,1.176471%);fill-opacity:1;" d="M 169.828125 225.007812 L 170.125 225.007812 C 177.027344 225.007812 182.625 219.410156 182.625 212.503906 C 182.625 205.597656 177.027344 200 170.125 200 L 169.828125 200 C 162.921875 200 157.324219 205.597656 157.324219 212.503906 C 157.324219 219.40625 162.921875 225.007812 169.828125 225.007812 Z M 169.828125 225.007812 "/>
<path style=" stroke:none;fill-rule:nonzero;fill:rgb(0%,0%,1.176471%);fill-opacity:1;" d="M 206.035156 225 L 269.828125 225 C 276.734375 225 282.332031 219.40625 282.332031 212.5 C 282.332031 205.59375 276.734375 199.996094 269.828125 199.996094 L 206.035156 199.996094 C 199.132812 199.996094 193.535156 205.59375 193.535156 212.5 C 193.535156 219.402344 199.128906 225 206.035156 225 Z M 206.035156 225 "/>
<path style=" stroke:none;fill-rule:nonzero;fill:rgb(0%,0%,1.176471%);fill-opacity:1;" d="M 162.5 349.996094 L 112.5 349.996094 C 91.820312 349.996094 74.996094 366.820312 74.996094 387.5 C 74.996094 408.179688 91.820312 425 112.5 425 L 162.5 425 C 183.175781 425 200 408.175781 200 387.5 C 200 366.820312 183.179688 349.996094 162.5 349.996094 Z M 162.5 399.996094 L 112.5 399.996094 C 105.609375 399.996094 100.003906 394.390625 100.003906 387.5 C 100.003906 380.605469 105.609375 375 112.5 375 L 162.5 375 C 169.390625 375 174.996094 380.609375 174.996094 387.5 C 174.996094 394.390625 169.390625 399.996094 162.5 399.996094 Z M 162.5 399.996094 "/>
<path style=" stroke:none;fill-rule:nonzero;fill:rgb(0%,0%,1.176471%);fill-opacity:1;" d="M 487.5 349.996094 L 437.5 349.996094 C 416.824219 349.996094 400 366.820312 400 387.5 C 400 408.179688 416.824219 425 437.5 425 L 487.5 425 C 508.179688 425 525.003906 408.175781 525.003906 387.5 C 525.003906 366.820312 508.179688 349.996094 487.5 349.996094 Z M 487.5 399.996094 L 437.5 399.996094 C 430.609375 399.996094 425.007812 394.390625 425.007812 387.5 C 425.007812 380.605469 430.609375 375 437.5 375 L 487.5 375 C 494.394531 375 499.996094 380.609375 499.996094 387.5 C 500 394.390625 494.394531 399.996094 487.5 399.996094 Z M 487.5 399.996094 "/>
<path style=" stroke:none;fill-rule:nonzero;fill:rgb(0%,0%,1.176471%);fill-opacity:1;" d="M 350.003906 399.996094 L 349.703125 399.996094 C 342.800781 399.996094 337.203125 405.59375 337.203125 412.496094 C 337.203125 419.402344 342.796875 425 349.703125 425 L 350.003906 425 C 356.90625 425 362.507812 419.402344 362.507812 412.496094 C 362.507812 405.59375 356.910156 399.996094 350.003906 399.996094 Z M 350.003906 399.996094 "/>
<path style=" stroke:none;fill-rule:nonzero;fill:rgb(0%,0%,1.176471%);fill-opacity:1;" d="M 313.789062 399.992188 L 249.996094 399.992188 C 243.09375 399.992188 237.496094 405.585938 237.496094 412.492188 C 237.496094 419.398438 243.089844 424.996094 249.996094 424.996094 L 313.789062 424.996094 C 320.695312 424.996094 326.292969 419.398438 326.292969 412.492188 C 326.292969 405.589844 320.699219 399.992188 313.789062 399.992188 Z M 313.789062 399.992188 "/>
<path style=" stroke:none;fill-rule:nonzero;fill:rgb(0%,0%,1.176471%);fill-opacity:1;" d="M 262.5 50 C 269.40625 50 275.003906 44.40625 275.003906 37.5 L 275.003906 12.503906 C 275 5.597656 269.40625 0 262.5 0 C 255.59375 0 249.996094 5.597656 249.996094 12.503906 L 249.996094 37.5 C 249.996094 44.40625 255.59375 50 262.5 50 Z M 262.5 50 "/>
<path style=" stroke:none;fill-rule:nonzero;fill:rgb(0%,0%,1.176471%);fill-opacity:1;" d="M 191.789062 71.96875 C 194.230469 74.410156 197.429688 75.628906 200.628906 75.628906 C 203.828125 75.628906 207.027344 74.410156 209.46875 71.96875 C 214.351562 67.085938 214.351562 59.167969 209.46875 54.285156 L 191.789062 36.609375 C 186.90625 31.726562 178.988281 31.726562 174.105469 36.609375 C 169.222656 41.492188 169.226562 49.410156 174.105469 54.292969 Z M 191.789062 71.96875 "/>
<path style=" stroke:none;fill-rule:nonzero;fill:rgb(0%,0%,1.176471%);fill-opacity:1;" d="M 324.371094 75.628906 C 327.570312 75.628906 330.769531 74.410156 333.210938 71.96875 L 350.890625 54.292969 C 355.773438 49.410156 355.773438 41.492188 350.890625 36.609375 C 346.007812 31.726562 338.089844 31.726562 333.207031 36.609375 L 315.527344 54.285156 C 310.648438 59.167969 310.648438 67.085938 315.527344 71.96875 C 317.972656 74.410156 321.171875 75.628906 324.371094 75.628906 Z M 324.371094 75.628906 "/>
</g>
</svg>
