<?xml version="1.0" encoding="UTF-8"?>
<svg xmlns="http://www.w3.org/2000/svg" xmlns:xlink="http://www.w3.org/1999/xlink" width="250px" height="250px" viewBox="0 0 250 250" version="1.1">
<g id="surface1">
<path style=" stroke:none;fill-rule:nonzero;fill:rgb(74.901962%,13.725491%,27.058825%);fill-opacity:1;" d="M 125 52.082031 C 125 43.488281 117.96875 36.457031 109.371094 36.457031 C 100.78125 36.457031 93.75 43.488281 93.75 52.082031 L 93.75 67.707031 L 124.996094 67.707031 L 124.996094 52.082031 Z M 125 52.082031 "/>
<path style=" stroke:none;fill-rule:nonzero;fill:rgb(66.274512%,76.862746%,85.490197%);fill-opacity:1;" d="M 186.59375 67.707031 L 63.40625 67.707031 C 56.550781 67.707031 53.265625 74.660156 50.941406 82.117188 L 35.269531 132.457031 C 38.863281 131.003906 42.78125 130.207031 46.875 130.207031 L 203.125 130.207031 C 207.21875 130.207031 211.136719 131.003906 214.730469 132.457031 L 199.058594 82.117188 C 196.734375 74.660156 193.449219 67.707031 186.59375 67.707031 Z M 186.59375 67.707031 "/>
<path style=" stroke:none;fill-rule:nonzero;fill:rgb(42.352942%,40.784314%,43.529412%);fill-opacity:1;" d="M 203.125 130.207031 L 46.875 130.207031 C 42.78125 130.207031 38.863281 131.003906 35.269531 132.457031 C 23.785156 137.085938 15.625 148.363281 15.625 161.457031 L 15.625 192.703125 L 234.375 192.703125 L 234.375 161.457031 C 234.375 148.363281 226.214844 137.085938 214.730469 132.457031 C 211.140625 131.003906 207.21875 130.207031 203.125 130.207031 Z M 46.875 151.039062 L 67.707031 151.039062 C 73.4375 151.039062 78.125 155.726562 78.125 161.457031 C 78.125 167.183594 73.4375 171.875 67.707031 171.875 L 46.875 171.875 C 41.144531 171.875 36.457031 167.183594 36.457031 161.457031 C 36.457031 155.726562 41.144531 151.039062 46.875 151.039062 Z M 182.292969 151.039062 L 203.125 151.039062 C 208.855469 151.039062 213.542969 155.726562 213.542969 161.457031 C 213.542969 167.183594 208.855469 171.875 203.125 171.875 L 182.292969 171.875 C 176.5625 171.875 171.878906 167.183594 171.878906 161.457031 C 171.875 155.726562 176.5625 151.039062 182.292969 151.039062 Z M 182.292969 151.039062 "/>
<path style=" stroke:none;fill-rule:nonzero;fill:rgb(90.980393%,52.549022%,23.137255%);fill-opacity:1;" d="M 78.125 161.457031 C 78.125 155.726562 73.4375 151.039062 67.707031 151.039062 L 46.875 151.039062 C 41.144531 151.039062 36.457031 155.726562 36.457031 161.457031 C 36.457031 167.183594 41.144531 171.875 46.875 171.875 L 67.707031 171.875 C 73.4375 171.875 78.125 167.183594 78.125 161.457031 Z M 78.125 161.457031 "/>
<path style=" stroke:none;fill-rule:nonzero;fill:rgb(90.980393%,52.549022%,23.137255%);fill-opacity:1;" d="M 171.875 161.457031 C 171.875 167.183594 176.5625 171.875 182.292969 171.875 L 203.125 171.875 C 208.855469 171.875 213.542969 167.183594 213.542969 161.457031 C 213.542969 155.726562 208.855469 151.039062 203.125 151.039062 L 182.292969 151.039062 C 176.5625 151.039062 171.875 155.726562 171.875 161.457031 Z M 171.875 161.457031 "/>
<path style=" stroke:none;fill-rule:nonzero;fill:rgb(95.294118%,86.666667%,72.549021%);fill-opacity:1;" d="M 234.375 192.703125 L 15.625 192.703125 C 9.894531 192.703125 5.210938 197.394531 5.210938 203.125 C 5.210938 208.851562 9.894531 213.539062 15.625 213.539062 L 234.375 213.539062 C 240.105469 213.539062 244.789062 208.851562 244.789062 203.121094 C 244.789062 197.394531 240.105469 192.703125 234.375 192.703125 Z M 234.375 192.703125 "/>
<path style=" stroke:none;fill-rule:nonzero;fill:rgb(42.352942%,40.784314%,43.529412%);fill-opacity:1;" d="M 57.292969 237.222656 L 57.292969 213.539062 L 26.042969 213.539062 L 26.042969 237.222656 C 26.042969 241.386719 29.449219 244.789062 33.609375 244.789062 L 49.722656 244.789062 C 53.886719 244.789062 57.292969 241.386719 57.292969 237.222656 Z M 57.292969 237.222656 "/>
<path style=" stroke:none;fill-rule:nonzero;fill:rgb(42.352942%,40.784314%,43.529412%);fill-opacity:1;" d="M 192.707031 213.539062 L 192.707031 237.222656 C 192.707031 241.386719 196.113281 244.789062 200.277344 244.789062 L 216.390625 244.789062 C 220.550781 244.789062 223.957031 241.386719 223.957031 237.222656 L 223.957031 213.539062 Z M 192.707031 213.539062 "/>
<path style=" stroke:none;fill-rule:nonzero;fill:rgb(0%,0%,1.176471%);fill-opacity:1;" d="M 239.585938 188.394531 L 239.585938 161.457031 C 239.585938 147.039062 231.171875 134.554688 218.996094 128.640625 L 204.03125 80.570312 C 202.492188 75.628906 198.40625 62.496094 186.59375 62.496094 L 130.207031 62.496094 L 130.207031 52.082031 C 130.207031 40.59375 120.863281 31.246094 109.371094 31.246094 C 97.886719 31.246094 88.539062 40.59375 88.539062 52.082031 L 88.539062 62.496094 L 63.40625 62.496094 C 51.59375 62.496094 47.507812 75.628906 45.96875 80.570312 L 31 128.640625 C 18.828125 134.554688 10.414062 147.039062 10.414062 161.457031 L 10.414062 188.394531 C 4.351562 190.542969 0 196.332031 0 203.125 C 0 211.742188 7.007812 218.75 15.625 218.75 L 20.835938 218.75 L 20.835938 237.222656 C 20.835938 244.265625 26.566406 250 33.609375 250 L 49.722656 250 C 56.769531 250 62.503906 244.265625 62.503906 237.222656 L 62.503906 218.75 L 187.5 218.75 L 187.5 237.222656 C 187.5 244.265625 193.234375 250 200.277344 250 L 216.390625 250 C 223.433594 250 229.167969 244.265625 229.167969 237.222656 L 229.167969 218.75 L 234.375 218.75 C 242.992188 218.75 250 211.742188 250 203.125 C 250 196.332031 245.648438 190.542969 239.585938 188.394531 Z M 98.960938 52.082031 C 98.960938 46.339844 103.632812 41.667969 109.375 41.667969 C 115.117188 41.667969 119.789062 46.339844 119.789062 52.082031 L 119.789062 62.5 L 98.960938 62.5 Z M 42.984375 125.207031 L 55.914062 83.664062 C 58.882812 74.136719 61.476562 72.917969 63.40625 72.917969 L 186.59375 72.917969 C 188.523438 72.917969 191.117188 74.136719 194.085938 83.667969 L 207.015625 125.207031 C 206.996094 125.203125 206.972656 125.203125 206.949219 125.199219 C 206.488281 125.152344 206.023438 125.121094 205.554688 125.085938 C 205.386719 125.078125 205.214844 125.058594 205.042969 125.046875 C 204.40625 125.015625 203.765625 124.996094 203.125 124.996094 L 46.875 124.996094 C 46.234375 124.996094 45.59375 125.015625 44.957031 125.046875 C 44.789062 125.058594 44.617188 125.078125 44.449219 125.085938 C 43.980469 125.121094 43.511719 125.152344 43.050781 125.199219 C 43.027344 125.203125 43.003906 125.203125 42.984375 125.207031 Z M 20.835938 161.457031 C 20.835938 150.542969 27.585938 141.183594 37.128906 137.316406 C 37.15625 137.304688 37.1875 137.300781 37.21875 137.289062 C 38.363281 136.828125 39.53125 136.449219 40.71875 136.15625 C 40.757812 136.148438 40.800781 136.140625 40.84375 136.128906 C 41.1875 136.042969 41.535156 135.96875 41.886719 135.902344 C 41.996094 135.878906 42.113281 135.863281 42.226562 135.839844 C 42.511719 135.789062 42.796875 135.738281 43.082031 135.695312 C 43.265625 135.667969 43.445312 135.648438 43.628906 135.625 C 43.855469 135.59375 44.089844 135.5625 44.320312 135.542969 C 44.570312 135.519531 44.820312 135.503906 45.074219 135.484375 C 45.246094 135.472656 45.414062 135.457031 45.585938 135.449219 C 46.011719 135.425781 46.441406 135.414062 46.875 135.414062 L 203.125 135.414062 C 203.558594 135.414062 203.988281 135.425781 204.417969 135.449219 C 204.578125 135.457031 204.742188 135.472656 204.90625 135.484375 C 205.164062 135.5 205.425781 135.519531 205.6875 135.542969 C 205.90625 135.5625 206.121094 135.59375 206.339844 135.621094 C 206.535156 135.644531 206.730469 135.667969 206.921875 135.695312 C 207.195312 135.734375 207.464844 135.785156 207.734375 135.832031 C 207.867188 135.855469 207.996094 135.875 208.128906 135.902344 C 208.460938 135.964844 208.789062 136.039062 209.117188 136.117188 C 209.175781 136.132812 209.238281 136.144531 209.296875 136.160156 C 210.476562 136.449219 211.644531 136.828125 212.78125 137.285156 C 212.828125 137.304688 212.875 137.316406 212.917969 137.332031 C 222.4375 141.210938 229.167969 150.558594 229.167969 161.453125 L 229.167969 187.496094 L 20.835938 187.496094 Z M 52.082031 237.222656 C 52.082031 238.5 51 239.582031 49.722656 239.582031 L 33.609375 239.582031 C 32.332031 239.582031 31.253906 238.5 31.253906 237.222656 L 31.253906 218.75 L 52.082031 218.75 C 52.082031 218.75 52.082031 237.222656 52.082031 237.222656 Z M 218.746094 237.222656 C 218.746094 238.5 217.667969 239.582031 216.390625 239.582031 L 200.277344 239.582031 C 199 239.582031 197.917969 238.5 197.917969 237.222656 L 197.917969 218.75 L 218.746094 218.75 Z M 234.375 208.332031 L 15.625 208.332031 C 12.753906 208.332031 10.421875 205.996094 10.421875 203.125 C 10.421875 200.25 12.753906 197.914062 15.625 197.914062 L 234.375 197.914062 C 237.246094 197.914062 239.582031 200.253906 239.582031 203.125 C 239.582031 205.996094 237.246094 208.332031 234.375 208.332031 Z M 234.375 208.332031 "/>
<path style=" stroke:none;fill-rule:nonzero;fill:rgb(0%,0%,1.176471%);fill-opacity:1;" d="M 70.761719 93.753906 L 70.882812 93.753906 C 73.761719 93.753906 76.09375 91.421875 76.09375 88.542969 C 76.09375 85.667969 73.761719 83.332031 70.882812 83.332031 L 70.761719 83.332031 C 67.886719 83.332031 65.550781 85.667969 65.550781 88.542969 C 65.550781 91.421875 67.886719 93.753906 70.761719 93.753906 Z M 70.761719 93.753906 "/>
<path style=" stroke:none;fill-rule:nonzero;fill:rgb(0%,0%,1.176471%);fill-opacity:1;" d="M 85.851562 93.75 L 112.429688 93.75 C 115.304688 93.75 117.640625 91.417969 117.640625 88.539062 C 117.640625 85.664062 115.304688 83.332031 112.429688 83.332031 L 85.851562 83.332031 C 82.972656 83.332031 80.640625 85.664062 80.640625 88.539062 C 80.640625 91.417969 82.972656 93.75 85.851562 93.75 Z M 85.851562 93.75 "/>
<path style=" stroke:none;fill-rule:nonzero;fill:rgb(0%,0%,1.176471%);fill-opacity:1;" d="M 67.707031 145.832031 L 46.875 145.832031 C 38.257812 145.832031 31.25 152.839844 31.25 161.457031 C 31.25 170.074219 38.257812 177.082031 46.875 177.082031 L 67.707031 177.082031 C 76.324219 177.082031 83.332031 170.074219 83.332031 161.457031 C 83.335938 152.839844 76.324219 145.832031 67.707031 145.832031 Z M 67.707031 166.664062 L 46.875 166.664062 C 44.003906 166.664062 41.667969 164.328125 41.667969 161.457031 C 41.667969 158.585938 44.003906 156.25 46.875 156.25 L 67.707031 156.25 C 70.578125 156.25 72.914062 158.585938 72.914062 161.457031 C 72.914062 164.328125 70.578125 166.664062 67.707031 166.664062 Z M 67.707031 166.664062 "/>
<path style=" stroke:none;fill-rule:nonzero;fill:rgb(0%,0%,1.176471%);fill-opacity:1;" d="M 203.125 145.832031 L 182.292969 145.832031 C 173.675781 145.832031 166.667969 152.839844 166.667969 161.457031 C 166.667969 170.074219 173.675781 177.082031 182.292969 177.082031 L 203.125 177.082031 C 211.742188 177.082031 218.753906 170.074219 218.753906 161.457031 C 218.753906 152.839844 211.742188 145.832031 203.125 145.832031 Z M 203.125 166.664062 L 182.292969 166.664062 C 179.421875 166.664062 177.085938 164.328125 177.085938 161.457031 C 177.085938 158.585938 179.421875 156.25 182.292969 156.25 L 203.125 156.25 C 205.996094 156.25 208.332031 158.585938 208.332031 161.457031 C 208.332031 164.328125 205.996094 166.664062 203.125 166.664062 Z M 203.125 166.664062 "/>
<path style=" stroke:none;fill-rule:nonzero;fill:rgb(0%,0%,1.176471%);fill-opacity:1;" d="M 145.835938 166.664062 L 145.710938 166.664062 C 142.832031 166.664062 140.5 168.996094 140.5 171.875 C 140.5 174.75 142.832031 177.082031 145.710938 177.082031 L 145.835938 177.082031 C 148.710938 177.082031 151.042969 174.75 151.042969 171.875 C 151.042969 168.996094 148.710938 166.664062 145.835938 166.664062 Z M 145.835938 166.664062 "/>
<path style=" stroke:none;fill-rule:nonzero;fill:rgb(0%,0%,1.176471%);fill-opacity:1;" d="M 130.746094 166.664062 L 104.164062 166.664062 C 101.289062 166.664062 98.957031 168.992188 98.957031 171.871094 C 98.957031 174.75 101.289062 177.082031 104.164062 177.082031 L 130.746094 177.082031 C 133.621094 177.082031 135.953125 174.75 135.953125 171.871094 C 135.953125 168.992188 133.621094 166.664062 130.746094 166.664062 Z M 130.746094 166.664062 "/>
<path style=" stroke:none;fill-rule:nonzero;fill:rgb(0%,0%,1.176471%);fill-opacity:1;" d="M 109.375 20.835938 C 112.25 20.835938 114.585938 18.5 114.585938 15.625 L 114.585938 5.210938 C 114.585938 2.332031 112.25 0 109.375 0 C 106.5 0 104.164062 2.332031 104.164062 5.210938 L 104.164062 15.625 C 104.164062 18.5 106.496094 20.835938 109.375 20.835938 Z M 109.375 20.835938 "/>
<path style=" stroke:none;fill-rule:nonzero;fill:rgb(0%,0%,1.176471%);fill-opacity:1;" d="M 79.910156 29.988281 C 80.929688 31.003906 82.261719 31.515625 83.597656 31.515625 C 84.929688 31.515625 86.261719 31.003906 87.277344 29.988281 C 89.3125 27.953125 89.3125 24.652344 87.277344 22.621094 L 79.910156 15.253906 C 77.875 13.21875 74.578125 13.21875 72.542969 15.253906 C 70.511719 17.289062 70.511719 20.589844 72.542969 22.621094 Z M 79.910156 29.988281 "/>
<path style=" stroke:none;fill-rule:nonzero;fill:rgb(0%,0%,1.176471%);fill-opacity:1;" d="M 135.152344 31.515625 C 136.488281 31.515625 137.820312 31.003906 138.835938 29.988281 L 146.203125 22.621094 C 148.238281 20.589844 148.238281 17.289062 146.203125 15.253906 C 144.167969 13.21875 140.871094 13.21875 138.835938 15.253906 L 131.46875 22.621094 C 129.4375 24.652344 129.4375 27.953125 131.46875 29.988281 C 132.488281 31.003906 133.820312 31.515625 135.152344 31.515625 Z M 135.152344 31.515625 "/>
</g>
</svg>
