<?xml version="1.0" encoding="UTF-8"?>
<svg xmlns="http://www.w3.org/2000/svg" xmlns:xlink="http://www.w3.org/1999/xlink" width="400px" height="400px" viewBox="0 0 400 400" version="1.1">
<g id="surface1">
<path style=" stroke:none;fill-rule:nonzero;fill:rgb(74.901962%,13.725491%,27.058825%);fill-opacity:1;" d="M 200 83.332031 C 200 69.582031 188.75 58.332031 174.996094 58.332031 C 161.25 58.332031 150 69.582031 150 83.332031 L 150 108.332031 L 199.996094 108.332031 L 199.996094 83.332031 Z M 200 83.332031 "/>
<path style=" stroke:none;fill-rule:nonzero;fill:rgb(66.274512%,76.862746%,85.490197%);fill-opacity:1;" d="M 298.546875 108.332031 L 101.449219 108.332031 C 90.480469 108.332031 85.222656 119.457031 81.507812 131.386719 L 56.429688 211.929688 C 62.179688 209.609375 68.449219 208.332031 75 208.332031 L 325 208.332031 C 331.550781 208.332031 337.820312 209.609375 343.566406 211.929688 L 318.492188 131.386719 C 314.777344 119.457031 309.519531 108.332031 298.546875 108.332031 Z M 298.546875 108.332031 "/>
<path style=" stroke:none;fill-rule:nonzero;fill:rgb(42.352942%,40.784314%,43.529412%);fill-opacity:1;" d="M 325 208.332031 L 75 208.332031 C 68.449219 208.332031 62.179688 209.609375 56.429688 211.929688 C 38.054688 219.339844 25 237.382812 25 258.332031 L 25 308.328125 L 375 308.328125 L 375 258.332031 C 375 237.382812 361.945312 219.339844 343.566406 211.929688 C 337.824219 209.609375 331.550781 208.332031 325 208.332031 Z M 75 241.664062 L 108.332031 241.664062 C 117.5 241.664062 125 249.164062 125 258.332031 C 125 267.496094 117.5 275 108.332031 275 L 75 275 C 65.832031 275 58.332031 267.496094 58.332031 258.332031 C 58.332031 249.164062 65.832031 241.664062 75 241.664062 Z M 291.667969 241.664062 L 325 241.664062 C 334.167969 241.664062 341.667969 249.164062 341.667969 258.332031 C 341.667969 267.496094 334.167969 275 325 275 L 291.667969 275 C 282.5 275 275.003906 267.496094 275.003906 258.332031 C 275 249.164062 282.5 241.664062 291.667969 241.664062 Z M 291.667969 241.664062 "/>
<path style=" stroke:none;fill-rule:nonzero;fill:rgb(90.980393%,52.549022%,23.137255%);fill-opacity:1;" d="M 125 258.332031 C 125 249.164062 117.5 241.664062 108.332031 241.664062 L 75 241.664062 C 65.832031 241.664062 58.332031 249.164062 58.332031 258.332031 C 58.332031 267.496094 65.832031 275 75 275 L 108.332031 275 C 117.5 275 125 267.496094 125 258.332031 Z M 125 258.332031 "/>
<path style=" stroke:none;fill-rule:nonzero;fill:rgb(90.980393%,52.549022%,23.137255%);fill-opacity:1;" d="M 275 258.332031 C 275 267.496094 282.5 275 291.667969 275 L 325 275 C 334.167969 275 341.667969 267.496094 341.667969 258.332031 C 341.667969 249.164062 334.167969 241.664062 325 241.664062 L 291.667969 241.664062 C 282.5 241.664062 275 249.164062 275 258.332031 Z M 275 258.332031 "/>
<path style=" stroke:none;fill-rule:nonzero;fill:rgb(95.294118%,86.666667%,72.549021%);fill-opacity:1;" d="M 375 308.328125 L 25 308.328125 C 15.832031 308.328125 8.335938 315.832031 8.335938 325 C 8.335938 334.164062 15.832031 341.664062 25 341.664062 L 375 341.664062 C 384.167969 341.664062 391.664062 334.164062 391.664062 324.996094 C 391.664062 315.832031 384.167969 308.328125 375 308.328125 Z M 375 308.328125 "/>
<path style=" stroke:none;fill-rule:nonzero;fill:rgb(42.352942%,40.784314%,43.529412%);fill-opacity:1;" d="M 91.667969 379.554688 L 91.667969 341.664062 L 41.667969 341.664062 L 41.667969 379.554688 C 41.667969 386.21875 47.117188 391.664062 53.777344 391.664062 L 79.558594 391.664062 C 86.21875 391.664062 91.667969 386.21875 91.667969 379.554688 Z M 91.667969 379.554688 "/>
<path style=" stroke:none;fill-rule:nonzero;fill:rgb(42.352942%,40.784314%,43.529412%);fill-opacity:1;" d="M 308.332031 341.664062 L 308.332031 379.554688 C 308.332031 386.21875 313.78125 391.664062 320.445312 391.664062 L 346.222656 391.664062 C 352.882812 391.664062 358.332031 386.21875 358.332031 379.554688 L 358.332031 341.664062 Z M 308.332031 341.664062 "/>
<path style=" stroke:none;fill-rule:nonzero;fill:rgb(0%,0%,1.176471%);fill-opacity:1;" d="M 383.335938 301.429688 L 383.335938 258.332031 C 383.335938 235.261719 369.875 215.285156 350.394531 205.824219 L 326.449219 128.910156 C 323.988281 121.003906 317.449219 99.996094 298.546875 99.996094 L 208.332031 99.996094 L 208.332031 83.332031 C 208.332031 64.949219 193.378906 49.996094 174.996094 49.996094 C 156.617188 49.996094 141.664062 64.949219 141.664062 83.332031 L 141.664062 99.996094 L 101.449219 99.996094 C 82.546875 99.996094 76.011719 121.003906 73.546875 128.910156 L 49.601562 205.824219 C 30.125 215.285156 16.664062 235.261719 16.664062 258.332031 L 16.664062 301.429688 C 6.964844 304.871094 0 314.132812 0 325 C 0 338.785156 11.214844 350 25 350 L 33.335938 350 L 33.335938 379.554688 C 33.335938 390.828125 42.507812 400 53.777344 400 L 79.558594 400 C 90.832031 400 100.003906 390.828125 100.003906 379.554688 L 100.003906 350 L 300 350 L 300 379.554688 C 300 390.828125 309.171875 400 320.445312 400 L 346.222656 400 C 357.496094 400 366.667969 390.828125 366.667969 379.554688 L 366.667969 350 L 375 350 C 388.785156 350 400 338.785156 400 325 C 400 314.132812 393.035156 304.871094 383.335938 301.429688 Z M 158.335938 83.332031 C 158.335938 74.144531 165.8125 66.667969 175 66.667969 C 184.1875 66.667969 191.664062 74.144531 191.664062 83.332031 L 191.664062 100 L 158.335938 100 Z M 68.773438 200.328125 L 89.464844 133.863281 C 94.210938 118.621094 98.363281 116.667969 101.449219 116.667969 L 298.546875 116.667969 C 301.636719 116.667969 305.789062 118.621094 310.535156 133.867188 L 331.226562 200.328125 C 331.191406 200.324219 331.15625 200.324219 331.121094 200.320312 C 330.382812 200.242188 329.636719 200.191406 328.890625 200.140625 C 328.617188 200.125 328.34375 200.09375 328.066406 200.078125 C 327.050781 200.027344 326.027344 199.996094 325 199.996094 L 75 199.996094 C 73.972656 199.996094 72.949219 200.023438 71.933594 200.078125 C 71.660156 200.09375 71.386719 200.125 71.117188 200.140625 C 70.367188 200.191406 69.617188 200.242188 68.878906 200.320312 C 68.84375 200.324219 68.808594 200.324219 68.773438 200.328125 Z M 33.335938 258.332031 C 33.335938 240.871094 44.136719 225.894531 59.40625 219.707031 C 59.453125 219.6875 59.5 219.679688 59.546875 219.660156 C 61.378906 218.921875 63.25 218.320312 65.148438 217.851562 C 65.214844 217.835938 65.28125 217.824219 65.347656 217.808594 C 65.898438 217.671875 66.457031 217.550781 67.015625 217.441406 C 67.195312 217.40625 67.378906 217.378906 67.5625 217.34375 C 68.019531 217.261719 68.476562 217.179688 68.933594 217.113281 C 69.222656 217.070312 69.511719 217.039062 69.804688 217 C 70.171875 216.953125 70.542969 216.902344 70.914062 216.867188 C 71.3125 216.828125 71.714844 216.804688 72.121094 216.777344 C 72.390625 216.757812 72.664062 216.730469 72.9375 216.71875 C 73.621094 216.683594 74.308594 216.664062 75 216.664062 L 325 216.664062 C 325.691406 216.664062 326.378906 216.683594 327.066406 216.71875 C 327.328125 216.730469 327.585938 216.753906 327.847656 216.773438 C 328.265625 216.800781 328.683594 216.828125 329.097656 216.867188 C 329.449219 216.902344 329.796875 216.949219 330.144531 216.992188 C 330.457031 217.03125 330.769531 217.066406 331.078125 217.113281 C 331.511719 217.175781 331.945312 217.253906 332.375 217.332031 C 332.585938 217.371094 332.796875 217.402344 333.007812 217.445312 C 333.535156 217.546875 334.0625 217.664062 334.589844 217.789062 C 334.683594 217.8125 334.78125 217.832031 334.875 217.855469 C 336.765625 218.320312 338.628906 218.921875 340.453125 219.65625 C 340.523438 219.6875 340.597656 219.707031 340.667969 219.730469 C 355.898438 225.9375 366.667969 240.894531 366.667969 258.328125 L 366.667969 299.992188 L 33.335938 299.992188 Z M 83.332031 379.554688 C 83.332031 381.601562 81.601562 383.332031 79.554688 383.332031 L 53.777344 383.332031 C 51.730469 383.332031 50.003906 381.601562 50.003906 379.554688 L 50.003906 350 L 83.332031 350 C 83.332031 350 83.332031 379.554688 83.332031 379.554688 Z M 349.996094 379.554688 C 349.996094 381.601562 348.269531 383.332031 346.222656 383.332031 L 320.445312 383.332031 C 318.398438 383.332031 316.667969 381.601562 316.667969 379.554688 L 316.667969 350 L 349.996094 350 Z M 375 333.332031 L 25 333.332031 C 20.40625 333.332031 16.671875 329.59375 16.671875 325 C 16.671875 320.402344 20.40625 316.664062 25 316.664062 L 375 316.664062 C 379.59375 316.664062 383.332031 320.40625 383.332031 325 C 383.332031 329.59375 379.59375 333.332031 375 333.332031 Z M 375 333.332031 "/>
<path style=" stroke:none;fill-rule:nonzero;fill:rgb(0%,0%,1.176471%);fill-opacity:1;" d="M 113.21875 150.003906 L 113.414062 150.003906 C 118.019531 150.003906 121.75 146.273438 121.75 141.667969 C 121.75 137.066406 118.019531 133.332031 113.414062 133.332031 L 113.21875 133.332031 C 108.617188 133.332031 104.882812 137.066406 104.882812 141.667969 C 104.882812 146.273438 108.617188 150.003906 113.21875 150.003906 Z M 113.21875 150.003906 "/>
<path style=" stroke:none;fill-rule:nonzero;fill:rgb(0%,0%,1.176471%);fill-opacity:1;" d="M 137.359375 150 L 179.886719 150 C 184.488281 150 188.222656 146.269531 188.222656 141.664062 C 188.222656 137.0625 184.488281 133.332031 179.886719 133.332031 L 137.359375 133.332031 C 132.753906 133.332031 129.023438 137.0625 129.023438 141.664062 C 129.023438 146.269531 132.753906 150 137.359375 150 Z M 137.359375 150 "/>
<path style=" stroke:none;fill-rule:nonzero;fill:rgb(0%,0%,1.176471%);fill-opacity:1;" d="M 108.332031 233.332031 L 75 233.332031 C 61.214844 233.332031 50 244.546875 50 258.332031 C 50 272.117188 61.214844 283.332031 75 283.332031 L 108.332031 283.332031 C 122.117188 283.332031 133.332031 272.117188 133.332031 258.332031 C 133.335938 244.546875 122.117188 233.332031 108.332031 233.332031 Z M 108.332031 266.664062 L 75 266.664062 C 70.40625 266.664062 66.667969 262.925781 66.667969 258.332031 C 66.667969 253.738281 70.40625 250 75 250 L 108.332031 250 C 112.925781 250 116.664062 253.738281 116.664062 258.332031 C 116.664062 262.925781 112.925781 266.664062 108.332031 266.664062 Z M 108.332031 266.664062 "/>
<path style=" stroke:none;fill-rule:nonzero;fill:rgb(0%,0%,1.176471%);fill-opacity:1;" d="M 325 233.332031 L 291.667969 233.332031 C 277.882812 233.332031 266.667969 244.546875 266.667969 258.332031 C 266.667969 272.117188 277.882812 283.332031 291.667969 283.332031 L 325 283.332031 C 338.785156 283.332031 350.003906 272.117188 350.003906 258.332031 C 350.003906 244.546875 338.785156 233.332031 325 233.332031 Z M 325 266.664062 L 291.667969 266.664062 C 287.074219 266.664062 283.335938 262.925781 283.335938 258.332031 C 283.335938 253.738281 287.074219 250 291.667969 250 L 325 250 C 329.59375 250 333.332031 253.738281 333.332031 258.332031 C 333.332031 262.925781 329.59375 266.664062 325 266.664062 Z M 325 266.664062 "/>
<path style=" stroke:none;fill-rule:nonzero;fill:rgb(0%,0%,1.176471%);fill-opacity:1;" d="M 233.335938 266.664062 L 233.136719 266.664062 C 228.53125 266.664062 224.800781 270.394531 224.800781 275 C 224.800781 279.601562 228.53125 283.332031 233.136719 283.332031 L 233.335938 283.332031 C 237.9375 283.332031 241.671875 279.601562 241.671875 275 C 241.671875 270.394531 237.9375 266.664062 233.335938 266.664062 Z M 233.335938 266.664062 "/>
<path style=" stroke:none;fill-rule:nonzero;fill:rgb(0%,0%,1.176471%);fill-opacity:1;" d="M 209.195312 266.660156 L 166.664062 266.660156 C 162.0625 266.660156 158.328125 270.390625 158.328125 274.996094 C 158.328125 279.597656 162.0625 283.332031 166.664062 283.332031 L 209.195312 283.332031 C 213.796875 283.332031 217.527344 279.597656 217.527344 274.996094 C 217.527344 270.390625 213.796875 266.660156 209.195312 266.660156 Z M 209.195312 266.660156 "/>
<path style=" stroke:none;fill-rule:nonzero;fill:rgb(0%,0%,1.176471%);fill-opacity:1;" d="M 175 33.335938 C 179.601562 33.335938 183.335938 29.601562 183.335938 25 L 183.335938 8.335938 C 183.335938 3.730469 179.601562 0 175 0 C 170.398438 0 166.664062 3.730469 166.664062 8.335938 L 166.664062 25 C 166.664062 29.601562 170.394531 33.335938 175 33.335938 Z M 175 33.335938 "/>
<path style=" stroke:none;fill-rule:nonzero;fill:rgb(0%,0%,1.176471%);fill-opacity:1;" d="M 127.859375 47.980469 C 129.488281 49.605469 131.621094 50.421875 133.753906 50.421875 C 135.886719 50.421875 138.019531 49.605469 139.644531 47.980469 C 142.902344 44.722656 142.898438 39.445312 139.644531 36.191406 L 127.859375 24.40625 C 124.601562 21.152344 119.324219 21.152344 116.070312 24.40625 C 112.816406 27.664062 112.816406 32.941406 116.070312 36.195312 Z M 127.859375 47.980469 "/>
<path style=" stroke:none;fill-rule:nonzero;fill:rgb(0%,0%,1.176471%);fill-opacity:1;" d="M 216.246094 50.421875 C 218.378906 50.421875 220.511719 49.605469 222.140625 47.980469 L 233.925781 36.195312 C 237.179688 32.941406 237.179688 27.660156 233.925781 24.40625 C 230.671875 21.152344 225.394531 21.152344 222.136719 24.40625 L 210.351562 36.191406 C 207.097656 39.445312 207.097656 44.722656 210.351562 47.980469 C 211.980469 49.605469 214.113281 50.421875 216.246094 50.421875 Z M 216.246094 50.421875 "/>
</g>
</svg>
